<svg width="41" height="24" viewBox="0 0 41 24" fill="none" xmlns="http://www.w3.org/2000/svg">
<path d="M22.4337 23.7033C22.9708 23.5939 23.9376 23.3752 23.9376 22.0627C23.9376 22.0627 23.8302 18.7814 25.3341 18.3439C26.838 17.9064 28.7716 21.5158 30.8126 22.9377C32.3165 23.9221 33.4981 23.8127 33.4981 23.8127L38.9766 23.7033C38.9766 23.7033 41.7696 23.4846 40.4805 21.1877C40.3731 20.9689 39.5138 19.5471 36.2911 16.5939C32.961 13.3127 33.4981 13.8596 37.4727 8.28144C39.9434 4.89081 41.0177 2.81268 40.6954 2.04706C40.2657 1.28143 38.547 1.39081 38.547 1.39081H32.4239C31.7794 1.39081 31.4571 1.50018 31.1348 2.04706C31.1348 2.04706 30.168 4.78143 28.879 6.96894C26.1934 11.6721 25.1192 11.8908 24.5821 11.5627C23.6153 11.0158 23.8302 8.93769 23.8302 7.51581C23.8302 2.59394 24.5821 0.843935 22.4337 0.406435C21.0372 0.187685 16.0958 -0.0310652 14.5919 0.73456C13.8399 1.17206 13.4102 1.93768 13.7325 2.04706C14.0548 2.04706 15.0216 2.15643 15.5587 2.81268C16.418 4.23456 16.5255 11.0158 15.3438 11.6721C13.7325 12.8752 9.65047 4.89081 8.68367 2.26581C8.46883 1.60956 8.14656 1.50018 7.39461 1.28143H1.48641C0.841875 1.28143 -0.124922 1.39081 0.304766 2.70331C3.20516 8.82831 9.22078 23.8127 20.0704 23.7033H22.4337Z" fill="black"/>
</svg>
